<svg id="visual" viewBox="0 0 900 600" width="900" height="600" xmlns="http://www.w3.org/2000/svg"
    xmlns:xlink="http://www.w3.org/1999/xlink" version="1.1">
    <path
        d="M0 115L13.7 127C27.3 139 54.7 163 82 184C109.3 205 136.7 223 163.8 235C191 247 218 253 245.2 229C272.3 205 299.7 151 327 145C354.3 139 381.7 181 409 180C436.3 179 463.7 135 491 120C518.3 105 545.7 119 573 135C600.3 151 627.7 169 654.8 187C682 205 709 223 736.2 230C763.3 237 790.7 233 818 222C845.3 211 872.7 193 886.3 184L900 175L900 0L886.3 0C872.7 0 845.3 0 818 0C790.7 0 763.3 0 736.2 0C709 0 682 0 654.8 0C627.7 0 600.3 0 573 0C545.7 0 518.3 0 491 0C463.7 0 436.3 0 409 0C381.7 0 354.3 0 327 0C299.7 0 272.3 0 245.2 0C218 0 191 0 163.8 0C136.7 0 109.3 0 82 0C54.7 0 27.3 0 13.7 0L0 0Z"
        fill="#fcfdff"></path>
    <path
        d="M0 325L13.7 325C27.3 325 54.7 325 82 336C109.3 347 136.7 369 163.8 384C191 399 218 407 245.2 401C272.3 395 299.7 375 327 369C354.3 363 381.7 371 409 372C436.3 373 463.7 367 491 356C518.3 345 545.7 329 573 330C600.3 331 627.7 349 654.8 356C682 363 709 359 736.2 355C763.3 351 790.7 347 818 337C845.3 327 872.7 311 886.3 303L900 295L900 173L886.3 182C872.7 191 845.3 209 818 220C790.7 231 763.3 235 736.2 228C709 221 682 203 654.8 185C627.7 167 600.3 149 573 133C545.7 117 518.3 103 491 118C463.7 133 436.3 177 409 178C381.7 179 354.3 137 327 143C299.7 149 272.3 203 245.2 227C218 251 191 245 163.8 233C136.7 221 109.3 203 82 182C54.7 161 27.3 137 13.7 125L0 113Z"
        fill="#f2f7ff"></path>
    <path
        d="M0 409L13.7 409C27.3 409 54.7 409 82 418C109.3 427 136.7 445 163.8 460C191 475 218 487 245.2 485C272.3 483 299.7 467 327 463C354.3 459 381.7 467 409 468C436.3 469 463.7 463 491 453C518.3 443 545.7 429 573 424C600.3 419 627.7 423 654.8 419C682 415 709 403 736.2 395C763.3 387 790.7 383 818 376C845.3 369 872.7 359 886.3 354L900 349L900 293L886.3 301C872.7 309 845.3 325 818 335C790.7 345 763.3 349 736.2 353C709 357 682 361 654.8 354C627.7 347 600.3 329 573 328C545.7 327 518.3 343 491 354C463.7 365 436.3 371 409 370C381.7 369 354.3 361 327 367C299.7 373 272.3 393 245.2 399C218 405 191 397 163.8 382C136.7 367 109.3 345 82 334C54.7 323 27.3 323 13.7 323L0 323Z"
        fill="#d8e8ff"></path>
    <path
        d="M0 505L13.7 506C27.3 507 54.7 509 82 512C109.3 515 136.7 519 163.8 524C191 529 218 535 245.2 531C272.3 527 299.7 513 327 512C354.3 511 381.7 523 409 524C436.3 525 463.7 515 491 505C518.3 495 545.7 485 573 491C600.3 497 627.7 519 654.8 512C682 505 709 469 736.2 450C763.3 431 790.7 429 818 432C845.3 435 872.7 443 886.3 447L900 451L900 347L886.3 352C872.7 357 845.3 367 818 374C790.7 381 763.3 385 736.2 393C709 401 682 413 654.8 417C627.7 421 600.3 417 573 422C545.7 427 518.3 441 491 451C463.7 461 436.3 467 409 466C381.7 465 354.3 457 327 461C299.7 465 272.3 481 245.2 483C218 485 191 473 163.8 458C136.7 443 109.3 425 82 416C54.7 407 27.3 407 13.7 407L0 407Z"
        fill="#f2f7ff"></path>
    <path
        d="M0 601L13.7 601C27.3 601 54.7 601 82 601C109.3 601 136.7 601 163.8 601C191 601 218 601 245.2 601C272.3 601 299.7 601 327 601C354.3 601 381.7 601 409 601C436.3 601 463.7 601 491 601C518.3 601 545.7 601 573 601C600.3 601 627.7 601 654.8 601C682 601 709 601 736.2 601C763.3 601 790.7 601 818 601C845.3 601 872.7 601 886.3 601L900 601L900 449L886.3 445C872.7 441 845.3 433 818 430C790.7 427 763.3 429 736.2 448C709 467 682 503 654.8 510C627.7 517 600.3 495 573 489C545.7 483 518.3 493 491 503C463.7 513 436.3 523 409 522C381.7 521 354.3 509 327 510C299.7 511 272.3 525 245.2 529C218 533 191 527 163.8 522C136.7 517 109.3 513 82 510C54.7 507 27.3 505 13.7 504L0 503Z"
        fill="#fcfdff"></path>
</svg>